<?xml version="1.0" encoding="utf-8"?>
<!-- Generator: Adobe Illustrator 16.0.0, SVG Export Plug-In . SVG Version: 6.00 Build 0)  -->
<!DOCTYPE svg PUBLIC "-//W3C//DTD SVG 1.1//EN" "http://www.w3.org/Graphics/SVG/1.1/DTD/svg11.dtd">
<svg version="1.1" id="Layer_1" xmlns:svg="http://www.w3.org/2000/svg"
	 xmlns="http://www.w3.org/2000/svg" xmlns:xlink="http://www.w3.org/1999/xlink" x="0px" y="0px" width="31.719px"
	 height="6.799px" viewBox="0 0 31.719 6.799" enable-background="new 0 0 31.719 6.799" xml:space="preserve">
<rect id="connector0pin" x="0.769" y="2.39" fill="none" width="0.721" height="0.721"/>
<rect id="connector1pin" x="30.229" y="2.39" fill="none" width="0.723" height="0.721"/>
<line id="connector0leg" fill="none" stroke="#8C8C8C" stroke-width="2.91" stroke-linecap="round" x1="1.456" y1="3.437" x2="2.504" y2="3.437"/>
<line id="connector1leg" fill="none" stroke="#8C8C8C" stroke-width="2.91" stroke-linecap="round" x1="30.262" y1="3.437" x2="29.215" y2="3.437"/>
<path fill="none" stroke="#8C8C8C" stroke-width="2.91" d="M1.456,3.437h28.365"/>
<path id="body" fill="#D9B477" d="M10.657,0.3c-0.36-0.165-0.979-0.295-1.375-0.295H7.294c-0.396,0-0.724,0.324-0.724,0.72v5.356
	c0,0.396,0.323,0.72,0.724,0.72H9.28c0.396,0,1.019-0.136,1.375-0.295l0.071-0.034c0.36-0.166,0.979-0.296,1.375-0.296h7.188
	c0.396,0,1.018,0.138,1.375,0.296l0.07,0.034c0.36,0.166,0.979,0.295,1.376,0.295h1.986c0.396,0,0.72-0.321,0.72-0.72V0.725
	c0-0.396-0.32-0.72-0.72-0.72H22.11c-0.396,0-1.016,0.137-1.376,0.295l-0.07,0.036c-0.357,0.166-0.979,0.295-1.375,0.295h-7.188
	c-0.396,0-1.015-0.137-1.375-0.295L10.657,0.3z"/>
<rect id="band3" x="16.582" y="0.632" fill="#8A3D06" width="1.852" height="5.535"/>
<rect id="band2" x="12.882" y="0.632" fill="#C40808" width="1.85" height="5.535"/>
<path id="band1" fill="#C40808" d="M11.037,0.444c-0.113-0.036-0.226-0.072-0.312-0.115l-0.071-0.036
	C10.295,0.128,9.676-0.002,9.28-0.002H9.196v6.797h0.088c0.396,0,1.018-0.138,1.375-0.298l0.069-0.033
	c0.086-0.045,0.194-0.08,0.312-0.115L11.037,0.444L11.037,0.444z"/>
<polygon id="band4" fill="#AD9F4E" points="22.428,-0.001 22.428,0.588 22.428,1.337 22.428,6.795 23.131,6.795 23.131,1.337 
	23.131,0.588 23.131,-0.001 "/>
<path id="ReflexRight" opacity="0.25" fill="#FFFFFF" enable-background="new    " d="M20.291,0.896
	c0.207,0,0.443-0.091,0.599-0.157c0.182-0.071,0.522-0.129,0.878-0.129h1.324c0.205,0,0.205,0.222,0.205,0.339
	c0,0.117-0.016,0.345-0.205,0.345h-2.776c-0.095,0-0.207-0.104-0.207-0.204C20.115,1.014,20.18,0.896,20.291,0.896z"/>
<circle id="ReflexLeft" opacity="0.35" fill="#FFFFFF" enable-background="new    " cx="7.409" cy="0.941" r="0.432"/>
<path id="Shadow" opacity="0.3" enable-background="new    " d="M24.12,3.894L24.12,3.894c0,0.38-0.132,0.699-0.295,0.699h-1.925
	c-0.381,0-0.979-0.059-1.332-0.121l-0.071-0.018c-0.347-0.062-0.946-0.121-1.333-0.121h-6.945c-0.384,0-0.979,0.059-1.332,0.121
	l-0.072,0.018C10.468,4.534,9.87,4.594,9.481,4.594H9.164H8.163H7.853c-0.382,0-0.697,0.294-0.697,0.646v0.245v0.158v0.174
	c0,0.358,0.315,0.646,0.697,0.646h1.62c0.381,0,0.979-0.123,1.332-0.271l0.07-0.027c0.348-0.145,0.951-0.266,1.332-0.266h6.944
	c0.382,0,0.979,0.121,1.334,0.268l0.073,0.025c0.349,0.146,0.945,0.271,1.334,0.271h2.228c0.383,0,0.697-0.296,0.697-0.646V5.278
	V4.306V2.46C24.545,2.568,24.12,2.871,24.12,3.894z"/>
</svg>
