<?xml version="1.0" encoding="utf-8"?>
<!-- Generator: Adobe Illustrator 16.0.0, SVG Export Plug-In . SVG Version: 6.00 Build 0)  -->
<!DOCTYPE svg PUBLIC "-//W3C//DTD SVG 1.1//EN" "http://www.w3.org/Graphics/SVG/1.1/DTD/svg11.dtd">
<svg version="1.1" id="Layer_1" xmlns:svg="http://www.w3.org/2000/svg"
	 xmlns="http://www.w3.org/2000/svg" xmlns:xlink="http://www.w3.org/1999/xlink" x="0px" y="0px" width="31.666px"
	 height="6.803px" viewBox="0 0 31.666 6.803" enable-background="new 0 0 31.666 6.803" xml:space="preserve">
<path fill="none" stroke="#8C8C8C" stroke-width="2.91" stroke-linecap="round" stroke-linejoin="round" d="M1.46,3.439L1.46,3.439"
	/>
<path fill="none" stroke="#8C8C8C" stroke-width="2.91" stroke-linecap="round" stroke-linejoin="round" d="M29.804,3.439h0.4"/>
<rect id="connector0pin" x="1.46" y="2.392" fill="none" width="0.72" height="0.72"/>
<rect id="connector1pin" x="28.17" y="2.392" fill="none" width="0.722" height="0.72"/>
<line id="connector0leg" fill="none" stroke="#8C8C8C" stroke-width="2.91" stroke-linecap="round" x1="1.46" y1="3.439" x2="1.46" y2="3.439"/>
<line id="connector1leg" fill="none" stroke="#8C8C8C" stroke-width="2.91" stroke-linecap="round" x1="30.205" y1="3.439" x2="29.804" y2="3.439"/>
<path fill="none" stroke="#8C8C8C" stroke-width="2.91" d="M1.46,3.439h28.314"/>
<path id="body" fill="#7BC6B8" d="M10.66,0.302C10.3,0.136,9.681,0.007,9.285,0.007H7.298c-0.396,0-0.72,0.324-0.72,0.72v5.356
	c0,0.396,0.324,0.72,0.72,0.72h1.987c0.396,0,1.015-0.136,1.375-0.296l0.072-0.035c0.359-0.164,0.979-0.295,1.375-0.295h7.185
	c0.396,0,1.016,0.137,1.375,0.295l0.072,0.035c0.359,0.166,0.979,0.296,1.375,0.296h1.986c0.396,0,0.721-0.323,0.721-0.72V0.727
	c0-0.396-0.322-0.72-0.721-0.72h-1.986c-0.396,0-1.016,0.137-1.375,0.295l-0.072,0.036c-0.359,0.166-0.979,0.295-1.375,0.295h-7.185
	c-0.396,0-1.016-0.137-1.375-0.295L10.66,0.302z"/>
<rect id="band3" x="15.145" y="0.633" width="1.851" height="5.537"/>
<rect id="band2" x="12.165" y="0.633" fill="#C40808" width="1.85" height="5.537"/>
<path id="band4" d="M18.011,0.636c0,0,1.196,0,1.399,0c0.202,0,0.438-0.062,0.438-0.062v5.672c0,0-0.203-0.065-0.438-0.065
	c-0.236,0-1.399-0.007-1.399-0.007V0.636z"/>
<path id="band1" fill="#C40808" d="M11.041,0.446c-0.115-0.036-0.223-0.072-0.31-0.115l-0.072-0.036C10.3,0.13,9.681,0,9.285,0
	H9.198v6.796h0.087c0.396,0,1.015-0.137,1.375-0.295l0.072-0.036c0.086-0.044,0.194-0.079,0.31-0.114L11.041,0.446L11.041,0.446z"/>
<polygon id="band5" fill="#AD9F4E" points="22.431,0 22.431,0.23 22.431,0.59 22.431,1.339 22.431,1.85 22.431,3.29 22.431,6.442 
	22.431,6.796 23.136,6.796 23.136,6.442 23.136,3.29 23.136,1.85 23.136,1.339 23.136,0.59 23.136,0.23 23.136,0 "/>
<path id="ReflexRight" opacity="0.35" fill="#FFFFFF" enable-background="new    " d="M20.622,0.896
	c0.186,0,0.398-0.096,0.537-0.165c0.164-0.075,0.468-0.137,0.784-0.137h1.186c0.184,0,0.184,0.233,0.184,0.357
	s-0.014,0.364-0.184,0.364h-2.484c-0.085,0-0.186-0.109-0.186-0.213C20.464,1.019,20.522,0.896,20.622,0.896z"/>
<circle id="ReflexLeft" opacity="0.35" fill="#FFFFFF" enable-background="new    " cx="7.413" cy="0.943" r="0.432"/>
<path id="Shadow" fill-opacity="0.4" d="M24.125,3.896L24.125,3.896c0,0.38-0.131,0.699-0.295,0.699h-1.925
	c-0.379,0-0.979-0.056-1.331-0.121l-0.072-0.017c-0.347-0.065-0.948-0.122-1.334-0.122h-6.947c-0.382,0-0.979,0.057-1.332,0.122
	l-0.071,0.015c-0.346,0.066-0.943,0.123-1.332,0.123H9.168H8.167h-0.31c-0.383,0-0.698,0.293-0.698,0.646v0.246v0.158v0.174
	c0,0.357,0.315,0.646,0.698,0.646h1.619c0.382,0,0.979-0.123,1.332-0.268L10.88,6.17c0.346-0.142,0.951-0.267,1.332-0.267h6.947
	c0.379,0,0.977,0.125,1.334,0.267l0.074,0.028c0.346,0.145,0.943,0.267,1.334,0.267h2.225c0.381,0,0.699-0.295,0.699-0.646V5.278
	V4.306V2.462C24.549,2.57,24.125,2.873,24.125,3.896z"/>
</svg>
